<svg width="21" height="25" fill="none" xmlns="http://www.w3.org/2000/svg"><path d="M17.117 3.922a6.346 6.346 0 00-9.098 0l-6.95 7.093A.248.248 0 001 11.19c0 .065.024.128.07.174l.982 1.003a.237.237 0 00.338 0l6.95-7.093a4.49 4.49 0 013.23-1.366c1.22 0 2.367.484 3.227 1.366a4.684 4.684 0 011.336 3.296 4.68 4.68 0 01-1.336 3.297l-7.083 7.232-1.148 1.173a2.712 2.712 0 01-3.89 0 2.818 2.818 0 01-.804-1.986c0-.75.285-1.455.804-1.985l7.027-7.176a.93.93 0 01.663-.28h.003c.25 0 .482.1.657.28a.959.959 0 01.275.677.957.957 0 01-.275.672l-5.743 5.862a.248.248 0 00-.07.174.25.25 0 00.07.174l.982 1.004a.237.237 0 00.339 0l5.74-5.865c.53-.54.82-1.259.82-2.023a2.88 2.88 0 00-.82-2.024 2.768 2.768 0 00-3.967 0l-.682.699-6.342 6.476c-.43.438-.772.958-1.004 1.53A4.772 4.772 0 001 18.29c0 1.26.482 2.442 1.353 3.332a4.553 4.553 0 006.532 0l8.232-8.405A6.612 6.612 0 0019 8.57a6.59 6.59 0 00-1.883-4.648z" fill="#214EF8"/></svg>